<svg xmlns="http://www.w3.org/2000/svg" xmlns:xlink="http://www.w3.org/1999/xlink" width="500" zoomAndPan="magnify" viewBox="0 0 375 374.999991" height="500" preserveAspectRatio="xMidYMid meet" version="1.0"><defs><g/><clipPath id="dab5a4024f"><path d="M 40.179688 0 L 334.929688 0 L 334.929688 295.5 L 40.179688 295.5 Z M 40.179688 0 " clip-rule="nonzero"/></clipPath></defs><g clip-path="url(#dab5a4024f)"><path fill="#bc8420" d="M 334.277344 290.535156 L 191.167969 75.863281 L 238.128906 5.414062 C 239.050781 4.03125 238.675781 2.167969 237.292969 1.25 C 235.925781 0.335938 234.054688 0.695312 233.128906 2.085938 L 187.554688 70.449219 L 141.984375 2.085938 C 141.0625 0.703125 139.195312 0.332031 137.816406 1.25 C 136.4375 2.167969 136.0625 4.03125 136.984375 5.414062 L 183.945312 75.863281 L 40.835938 290.535156 C 40.222656 291.457031 40.164062 292.644531 40.6875 293.625 C 41.207031 294.59375 42.222656 295.207031 43.335938 295.207031 L 331.777344 295.207031 C 332.886719 295.207031 333.902344 294.59375 334.421875 293.621094 C 334.949219 292.640625 334.894531 291.457031 334.277344 290.535156 Z M 208.589844 284.949219 L 194.808594 271.167969 L 208.589844 271.167969 Z M 184.550781 268.164062 C 184.550781 268.558594 184.636719 268.957031 184.785156 269.316406 C 184.9375 269.691406 185.160156 270.015625 185.433594 270.289062 L 204.339844 289.195312 L 129.074219 289.195312 L 184.550781 205.972656 Z M 214.597656 289.195312 L 214.597656 268.164062 C 214.597656 266.503906 213.25 265.160156 211.59375 265.160156 L 190.5625 265.160156 L 190.5625 205.972656 L 246.039062 289.195312 Z M 253.265625 289.195312 L 190.054688 194.386719 C 190.015625 194.324219 189.941406 194.308594 189.898438 194.253906 C 189.351562 193.542969 188.523438 193.050781 187.554688 193.050781 C 186.589844 193.050781 185.757812 193.542969 185.210938 194.253906 C 185.171875 194.3125 185.097656 194.332031 185.054688 194.386719 L 121.851562 289.195312 L 48.949219 289.195312 L 187.554688 81.277344 L 326.15625 289.195312 Z M 253.265625 289.195312 " fill-opacity="1" fill-rule="nonzero"/></g><g fill="#bc8420" fill-opacity="1"><g transform="translate(0.270796, 360.319107)"><g><path d="M 11.84375 0 L 13.777344 0 L 13.777344 -26.976562 L 24.304688 -26.976562 L 24.304688 -28.785156 L 1.316406 -28.785156 L 1.316406 -26.976562 L 11.84375 -26.976562 Z M 11.84375 0 "/></g></g></g><g fill="#bc8420" fill-opacity="1"><g transform="translate(58.788931, 360.319107)"><g><path d="M 0.492188 0 L 2.671875 0 L 5.347656 -5.921875 L 23.605469 -5.921875 L 26.320312 0 L 28.457031 0 L 14.761719 -29.238281 L 14.1875 -29.238281 Z M 6.128906 -7.527344 L 14.351562 -25.496094 L 14.597656 -25.496094 L 22.863281 -7.527344 Z M 6.128906 -7.527344 "/></g></g></g><g fill="#bc8420" fill-opacity="1"><g transform="translate(120.637881, 360.319107)"><g><path d="M 3.289062 0 L 5.222656 0 L 5.222656 -9.046875 L 11.964844 -15.421875 L 12.296875 -15.421875 L 25.535156 0 L 27.882812 0 L 13.613281 -16.859375 L 26.152344 -28.785156 L 23.726562 -28.785156 L 5.46875 -11.554688 L 5.222656 -11.554688 L 5.222656 -28.785156 L 3.289062 -28.785156 Z M 3.289062 0 "/></g></g></g><g fill="#bc8420" fill-opacity="1"><g transform="translate(182.281226, 360.319107)"><g><path d="M 0.492188 0 L 2.671875 0 L 5.347656 -5.921875 L 23.605469 -5.921875 L 26.320312 0 L 28.457031 0 L 14.761719 -29.238281 L 14.1875 -29.238281 Z M 6.128906 -7.527344 L 14.351562 -25.496094 L 14.597656 -25.496094 L 22.863281 -7.527344 Z M 6.128906 -7.527344 "/></g></g></g><g fill="#bc8420" fill-opacity="1"><g transform="translate(244.130186, 360.319107)"><g><path d="M 12.707031 0 L 14.597656 0 L 14.597656 -11.71875 L 26.851562 -28.785156 L 24.589844 -28.785156 L 13.777344 -13.898438 L 13.53125 -13.898438 L 2.796875 -28.785156 L 0.492188 -28.785156 L 12.707031 -11.761719 Z M 12.707031 0 "/></g></g></g><g fill="#bc8420" fill-opacity="1"><g transform="translate(304.375406, 360.319107)"><g><path d="M 0.492188 0 L 2.671875 0 L 5.347656 -5.921875 L 23.605469 -5.921875 L 26.320312 0 L 28.457031 0 L 14.761719 -29.238281 L 14.1875 -29.238281 Z M 6.128906 -7.527344 L 14.351562 -25.496094 L 14.597656 -25.496094 L 22.863281 -7.527344 Z M 6.128906 -7.527344 "/></g></g></g><g fill="#bc8420" fill-opacity="1"><g transform="translate(366.224355, 360.319107)"><g><path d="M 3.289062 0 L 5.222656 0 L 5.222656 -28.785156 L 3.289062 -28.785156 Z M 3.289062 0 "/></g></g></g></svg>